<svg xmlns="http://www.w3.org/2000/svg" xmlns:xlink="http://www.w3.org/1999/xlink" width="500" zoomAndPan="magnify" viewBox="0 0 375 374.999991" height="500" preserveAspectRatio="xMidYMid meet" version="1.0"><path fill="#010202" d="M 213.277344 187.90625 C 213.277344 188.910156 213.230469 189.910156 213.128906 190.910156 C 213.03125 191.914062 212.886719 192.90625 212.6875 193.890625 C 212.492188 194.875 212.25 195.851562 211.957031 196.8125 C 211.664062 197.773438 211.328125 198.71875 210.941406 199.648438 C 210.558594 200.574219 210.128906 201.484375 209.65625 202.371094 C 209.179688 203.257812 208.664062 204.117188 208.105469 204.953125 C 207.546875 205.789062 206.949219 206.59375 206.3125 207.371094 C 205.675781 208.148438 205 208.890625 204.289062 209.601562 C 203.582031 210.3125 202.835938 210.988281 202.058594 211.625 C 201.28125 212.261719 200.476562 212.859375 199.640625 213.417969 C 198.804688 213.976562 197.945312 214.492188 197.058594 214.96875 C 196.171875 215.441406 195.265625 215.871094 194.335938 216.253906 C 193.40625 216.640625 192.460938 216.976562 191.5 217.269531 C 190.539062 217.5625 189.566406 217.804688 188.578125 218 C 187.59375 218.195312 186.601562 218.34375 185.601562 218.441406 C 184.601562 218.542969 183.597656 218.589844 182.59375 218.589844 C 181.589844 218.589844 180.585938 218.542969 179.585938 218.441406 C 178.585938 218.34375 177.59375 218.195312 176.605469 218 C 175.621094 217.804688 174.648438 217.5625 173.683594 217.269531 C 172.722656 216.976562 171.777344 216.640625 170.851562 216.253906 C 169.921875 215.871094 169.015625 215.441406 168.128906 214.96875 C 167.242188 214.492188 166.378906 213.976562 165.546875 213.417969 C 164.710938 212.859375 163.902344 212.261719 163.125 211.625 C 162.347656 210.988281 161.605469 210.3125 160.894531 209.601562 C 160.183594 208.890625 159.511719 208.148438 158.871094 207.371094 C 158.234375 206.59375 157.636719 205.789062 157.078125 204.953125 C 156.519531 204.117188 156.003906 203.257812 155.53125 202.371094 C 155.058594 201.484375 154.628906 200.574219 154.242188 199.648438 C 153.859375 198.71875 153.519531 197.773438 153.230469 196.8125 C 152.9375 195.851562 152.691406 194.875 152.496094 193.890625 C 152.300781 192.90625 152.152344 191.914062 152.054688 190.910156 C 151.957031 189.910156 151.90625 188.910156 151.90625 187.90625 C 151.90625 186.898438 151.957031 185.898438 152.054688 184.898438 C 152.152344 183.894531 152.300781 182.902344 152.496094 181.917969 C 152.691406 180.933594 152.9375 179.957031 153.230469 178.996094 C 153.519531 178.035156 153.859375 177.089844 154.242188 176.160156 C 154.628906 175.234375 155.058594 174.324219 155.53125 173.4375 C 156.003906 172.550781 156.519531 171.691406 157.078125 170.855469 C 157.636719 170.019531 158.234375 169.214844 158.871094 168.4375 C 159.511719 167.660156 160.183594 166.917969 160.894531 166.207031 C 161.605469 165.496094 162.347656 164.820312 163.125 164.183594 C 163.902344 163.546875 164.710938 162.949219 165.546875 162.390625 C 166.378906 161.832031 167.242188 161.316406 168.128906 160.839844 C 169.015625 160.367188 169.921875 159.9375 170.851562 159.554688 C 171.777344 159.167969 172.722656 158.832031 173.683594 158.539062 C 174.648438 158.246094 175.621094 158.003906 176.605469 157.808594 C 177.59375 157.613281 178.585938 157.464844 179.585938 157.367188 C 180.585938 157.265625 181.589844 157.21875 182.59375 157.21875 C 183.597656 157.21875 184.601562 157.265625 185.601562 157.367188 C 186.601562 157.464844 187.59375 157.613281 188.578125 157.808594 C 189.566406 158.003906 190.539062 158.246094 191.5 158.539062 C 192.460938 158.832031 193.40625 159.167969 194.335938 159.554688 C 195.265625 159.9375 196.171875 160.367188 197.058594 160.839844 C 197.945312 161.316406 198.804688 161.832031 199.640625 162.390625 C 200.476562 162.949219 201.28125 163.546875 202.058594 164.183594 C 202.835938 164.820312 203.582031 165.496094 204.289062 166.207031 C 205 166.917969 205.675781 167.660156 206.3125 168.4375 C 206.949219 169.214844 207.546875 170.019531 208.105469 170.855469 C 208.664062 171.691406 209.179688 172.550781 209.65625 173.4375 C 210.128906 174.324219 210.558594 175.234375 210.941406 176.160156 C 211.328125 177.089844 211.664062 178.035156 211.957031 178.996094 C 212.25 179.957031 212.492188 180.933594 212.6875 181.917969 C 212.886719 182.902344 213.03125 183.894531 213.128906 184.898438 C 213.230469 185.898438 213.277344 186.898438 213.277344 187.90625 Z M 213.277344 187.90625 " fill-opacity="1" fill-rule="nonzero"/><path fill="#010202" d="M 254.28125 133.769531 C 252.675781 129.480469 250.53125 126.398438 247.449219 123.183594 C 244.230469 119.964844 241.148438 117.957031 236.863281 116.347656 C 233.644531 115.140625 228.824219 113.667969 219.84375 113.132812 C 210.195312 112.730469 207.25 112.597656 182.726562 112.597656 C 158.207031 112.597656 155.257812 112.597656 145.609375 113.132812 C 136.632812 113.535156 131.808594 115.007812 128.589844 116.347656 C 124.304688 117.957031 121.222656 120.101562 118.007812 123.183594 C 114.789062 126.398438 112.78125 129.480469 111.171875 133.769531 C 109.964844 136.984375 108.492188 141.808594 107.957031 150.785156 C 107.554688 160.433594 107.421875 163.382812 107.421875 187.902344 C 107.421875 212.425781 107.421875 215.375 107.957031 225.023438 C 108.359375 234 109.832031 238.824219 111.171875 242.039062 C 112.78125 246.328125 114.925781 249.410156 118.007812 252.625 C 121.222656 255.84375 124.304688 257.851562 128.589844 259.460938 C 131.808594 260.667969 136.632812 262.140625 145.609375 262.675781 C 155.257812 263.078125 158.207031 263.210938 182.726562 263.210938 C 207.25 263.210938 210.195312 263.210938 219.84375 262.675781 C 228.824219 262.273438 233.644531 260.800781 236.863281 259.460938 C 241.148438 257.851562 244.230469 255.707031 247.449219 252.625 C 250.664062 249.410156 252.675781 246.328125 254.28125 242.039062 C 255.488281 238.824219 256.960938 234 257.496094 225.023438 C 257.898438 215.375 258.035156 212.425781 258.035156 187.902344 C 258.035156 163.382812 258.035156 160.433594 257.496094 150.785156 C 257.097656 141.808594 255.488281 136.984375 254.28125 133.769531 Z M 182.59375 235.207031 C 156.464844 235.207031 135.425781 214.035156 135.425781 188.039062 C 135.425781 162.042969 156.597656 140.871094 182.59375 140.871094 C 208.722656 140.871094 229.761719 162.042969 229.761719 188.039062 C 229.761719 214.035156 208.589844 235.207031 182.59375 235.207031 Z M 231.636719 149.847656 C 225.472656 149.847656 220.648438 144.890625 220.648438 138.859375 C 220.648438 132.695312 225.605469 127.871094 231.636719 127.871094 C 237.800781 127.871094 242.625 132.832031 242.625 138.859375 C 242.757812 145.023438 237.800781 149.847656 231.636719 149.847656 Z M 231.636719 149.847656 " fill-opacity="1" fill-rule="nonzero"/><path fill="#010202" d="M 182.460938 25.628906 C 94.554688 25.628906 23.402344 96.785156 23.402344 184.6875 C 23.402344 272.59375 94.554688 343.746094 182.460938 343.746094 C 270.363281 343.746094 341.515625 272.59375 341.515625 184.6875 C 341.515625 96.785156 270.226562 25.628906 182.460938 25.628906 Z M 273.980469 225.828125 C 273.578125 235.609375 271.96875 242.308594 269.691406 248.203125 C 267.28125 254.234375 264.199219 259.460938 259.105469 264.550781 C 254.015625 269.644531 248.921875 272.859375 242.757812 275.136719 C 236.863281 277.417969 230.164062 278.890625 220.378906 279.425781 C 210.597656 279.828125 207.515625 279.960938 182.460938 279.960938 C 157.402344 279.960938 154.320312 279.828125 144.539062 279.425781 C 134.753906 279.023438 128.054688 277.417969 122.160156 275.136719 C 116.128906 272.726562 110.902344 269.644531 105.8125 264.550781 C 100.71875 259.460938 97.503906 254.367188 95.226562 248.203125 C 92.949219 242.308594 91.472656 235.609375 90.9375 225.828125 C 90.535156 216.042969 90.402344 212.960938 90.402344 187.902344 C 90.402344 162.847656 90.535156 159.765625 90.9375 149.980469 C 91.339844 140.199219 92.949219 133.5 95.226562 127.605469 C 97.636719 121.574219 100.71875 116.347656 105.8125 111.257812 C 110.902344 106.164062 115.996094 102.949219 122.160156 100.671875 C 128.054688 98.390625 134.753906 96.917969 144.539062 96.382812 C 154.320312 95.980469 157.402344 95.847656 182.460938 95.847656 C 207.515625 95.847656 210.597656 95.980469 220.378906 96.382812 C 230.164062 96.785156 236.863281 98.390625 242.757812 100.671875 C 248.789062 103.082031 254.015625 106.164062 259.105469 111.257812 C 264.199219 116.347656 267.414062 121.441406 269.691406 127.605469 C 271.96875 133.5 273.445312 140.199219 273.980469 149.980469 C 274.515625 159.765625 274.515625 162.847656 274.515625 187.902344 C 274.515625 212.960938 274.382812 216.042969 273.980469 225.828125 Z M 273.980469 225.828125 " fill-opacity="1" fill-rule="nonzero"/></svg>